<?xml version="1.0" encoding="UTF-8"?><svg id="Layer_1" xmlns="http://www.w3.org/2000/svg" xmlns:xlink="http://www.w3.org/1999/xlink" viewBox="0 0 29.7 8.38"><defs><style>.cls-1{fill:#fff;}.cls-2{fill:url(#linear-gradient);}.cls-3{fill:#231f20;}</style><linearGradient id="linear-gradient" x1="864.38" y1="-265.89" x2="864.38" y2="-261.25" gradientTransform="translate(-861.84 266.53)" gradientUnits="userSpaceOnUse"><stop offset="0" stop-color="#28aae1"/><stop offset=".71" stop-color="#2d368e"/></linearGradient></defs><g><rect class="cls-2" x="0" y=".1" width="5.08" height="7.9" rx=".55" ry=".55"/><path class="cls-1" d="M4.58,6.73v-.04l-.03-1.34h-.16v-.39h-.42v.35h-.21v-.36h-.27v-.26h-.23c0-.39,.01-.78,.01-1.16v-.03l-.02-.02-.2-.23v-.48h-.13v-.26h.18v-.79h-.14s0-.02,0-.04c.01-.04,.03-.07,.06-.1,.03-.03,.06-.06,.09-.08,.03-.02,.07-.04,.11-.06,.16-.07,.35-.11,.54-.13,.09,0,.19-.02,.28-.02,.05,0,.09,0,.14,0h.11s.02,0,.04,0c.03,0,.07-.01,.1-.03,.03-.02,.06-.05,.08-.08,.03-.07,.02-.12,.02-.17v-.04s0-.02,0-.04c0-.04-.03-.07-.06-.1-.03-.03-.06-.04-.09-.05-.03,0-.06,0-.09,0h0l-1.78,.02c-.3,0-.59,0-.89,0H.76c-.05,0-.11,.01-.16,.05-.05,.04-.05,.11-.05,.15,0,.05,0,.1,.02,.15,.01,.03,.03,.05,.06,.06,.03,.01,.05,.02,.08,.02,.05,0,.1,0,.15,0,.05,0,.1,0,.14,0,.1,0,.19,0,.29,.02,.19,.02,.38,.05,.55,.13,.04,.02,.08,.04,.12,.07,.04,.03,.07,.06,.1,.09,.03,.03,.05,.07,.07,.11,.01,.03,.02,.06,.02,.09h-.15v.73h.17v.3h-.14v.47l-.21,.23-.02,.02v1.16h-.25v.25h-.28v.35h-.11v-.37H.6v.37h-.16v.09c0,.45,0,.89,0,1.34v.09h.16v.57h.57v-.57h.29v-.1s0-.04,0-.05c0-.02,.01-.02,.02-.03,0,0,.01,0,.03,0h.03s0,0,.02,.02c.04,.02,.09,.05,.14,.08l.15,.1c.05,.03,.1,.06,.16,.09,.05,.03,.11,.06,.17,.08l.09,.03,.09,.02h.1l.1,.02h.09l.1-.02,.09-.03,.09-.03c.06-.02,.11-.05,.17-.08,.05-.03,.11-.06,.16-.1l.15-.1s.1-.07,.14-.09c.02-.01,.05-.02,.05-.02,.02,0,.03,0,.03,0,0,0,.01,0,.02,0,.02,0,.03,.06,.03,.1v.07h.28v.55h.5v-.59h.14Zm-.58-.09h-.22s0-.03,0-.04c-.01-.04-.03-.08-.07-.11-.02-.01-.04-.02-.06-.03-.03,0-.04,0-.06,0-.06,0-.09,.02-.12,.03-.06,.03-.11,.06-.16,.1l-.15,.1s-.1,.06-.15,.09c-.05,.03-.1,.05-.15,.07l-.08,.03-.08,.02h-.08l-.09,.02s-.05,0-.08,0h-.08l-.08-.04-.08-.03c-.05-.02-.1-.05-.15-.07-.05-.03-.1-.06-.15-.09l-.15-.1c-.05-.03-.1-.07-.16-.1-.01,0-.04-.02-.06-.02-.01,0-.02,0-.03,0h-.03s-.09,0-.14,.04c-.04,.03-.07,.08-.08,.12v.02h-.29v.56h-.2v-.58h-.15c0-.38,0-.77,0-1.15h.15v-.38h.2v.36h.45v-.36h.28v-.25h.24v-1.27l.19-.23,.02-.02v-.4h.13v-.52h-.19v-.54h.15v-.04c0-.05-.01-.11-.03-.16-.02-.05-.05-.09-.08-.13-.04-.04-.07-.07-.12-.1-.04-.03-.09-.05-.13-.07-.18-.08-.38-.11-.57-.13-.1,0-.19-.01-.29-.01-.05,0-.1,0-.15,0-.05,0-.1,0-.14,0-.04,0-.08-.02-.1-.06-.02-.03-.02-.08-.02-.13,0-.05,0-.09,.03-.11,.03-.03,.07-.03,.12-.03h.89c.3,0,.59,0,.89,.01l1.78,.02h0s.07,0,.09,.02c0,0,.01,.02,.01,.03v.06s0,.09-.01,.11c0,.01-.01,.02-.02,.02,0,0-.03,0-.04,.01h-.14s-.1,0-.15,0c-.1,0-.2,0-.3,.02-.2,.02-.4,.05-.59,.13-.05,.02-.09,.05-.14,.08-.05,.03-.09,.07-.13,.11-.04,.04-.07,.09-.09,.15-.02,.05-.03,.11-.03,.17v.08h.15v.48h-.18v.56h.14v.39l.02,.02,.2,.23c0,.4,0,.79,.01,1.19v.06h.24v.24h.29v.34h.36v-.38h.33v.36h.16l-.03,1.29h-.16v.56h-.29v-.58h-.06Z"/></g><g><g><polygon class="cls-3" points="6.14 7.43 6.61 7.43 6.61 7.27 6.14 7.27 6.14 6.91 6.64 6.91 6.64 6.76 5.96 6.76 5.96 8 6.67 8 6.67 7.84 6.14 7.84 6.14 7.43"/><path class="cls-3" d="M7.36,7.08c-.14,0-.23,.07-.28,.14v-.12h-.17c0,.08,0,.15,0,.25v.65h.18v-.54s0-.05,.01-.07c.03-.08,.1-.16,.2-.16,.16,0,.19,.13,.19,.25v.52h.18v-.53c0-.37-.27-.38-.32-.38Z"/><path class="cls-3" d="M8.59,7.21c-.04-.06-.12-.13-.27-.13-.2,0-.41,.16-.41,.47,0,.25,.17,.44,.38,.44,.11,0,.21-.05,.27-.13v.06c0,.19-.09,.3-.27,.3-.09,0-.18-.03-.25-.07h-.01l-.05,.14h0c.07,.05,.18,.08,.3,.08,.08,0,.22-.01,.33-.11,.09-.08,.13-.21,.13-.41v-.51c0-.11,0-.18,0-.24h-.16v.1Zm-.25,.64c-.18,0-.25-.16-.25-.3,0-.19,.1-.32,.25-.32,.1,0,.18,.06,.21,.16,0,.02,0,.04,0,.07v.16s0,.06-.01,.08c-.03,.09-.11,.15-.21,.15Z"/><rect class="cls-3" x="9.04" y="7.1" width=".18" height=".9"/><path class="cls-3" d="M9.13,6.75c-.06,0-.11,.05-.11,.11s.05,.11,.11,.11c.07,0,.11-.04,.11-.11s-.05-.11-.11-.11Z"/><path class="cls-3" d="M9.98,7.08c-.14,0-.23,.07-.28,.14v-.12h-.17c0,.08,0,.15,0,.25v.65h.18v-.54s0-.05,.01-.07c.03-.08,.1-.16,.2-.16,.16,0,.19,.13,.19,.25v.52h.18v-.53c0-.37-.27-.38-.32-.38Z"/><path class="cls-3" d="M10.96,7.08c-.25,0-.42,.2-.42,.48s.17,.45,.44,.45c.14,0,.24-.03,.3-.06h0l-.03-.14h-.01c-.05,.03-.12,.05-.24,.05-.08,0-.28-.03-.29-.28h.61s0-.05,0-.09c0-.19-.1-.42-.37-.42Zm-.01,.14c.06,0,.11,.02,.14,.05,.06,.06,.06,.14,.07,.18h-.44c.02-.11,.09-.23,.23-.23Z"/><path class="cls-3" d="M11.93,7.08c-.25,0-.42,.2-.42,.48s.17,.45,.44,.45c.14,0,.24-.03,.3-.06h0l-.03-.14h-.01c-.05,.03-.12,.05-.24,.05-.08,0-.28-.03-.29-.28h.61s0-.05,0-.09c0-.19-.1-.42-.37-.42Zm-.01,.14c.06,0,.11,.02,.14,.05,.06,.06,.06,.14,.07,.18h-.44c.02-.11,.09-.23,.23-.23Z"/><path class="cls-3" d="M12.95,7.08c-.1,0-.19,.06-.24,.16v-.14h-.17c0,.09,0,.17,0,.28v.61h.18v-.48s0-.05,0-.07c.02-.12,.1-.19,.2-.19,.02,0,.04,0,.05,0h.01v-.17h-.01s-.03,0-.04,0Z"/><path class="cls-3" d="M13.3,6.75c-.06,0-.11,.05-.11,.11s.05,.11,.11,.11c.07,0,.11-.04,.11-.11s-.05-.11-.11-.11Z"/><rect class="cls-3" x="13.21" y="7.1" width=".18" height=".9"/><path class="cls-3" d="M14.15,7.08c-.14,0-.23,.07-.28,.14v-.12h-.17c0,.08,0,.15,0,.25v.65h.18v-.54s0-.05,.01-.07c.03-.08,.1-.16,.2-.16,.16,0,.19,.13,.19,.25v.52h.18v-.53c0-.37-.27-.38-.32-.38Z"/><path class="cls-3" d="M15.38,7.21c-.04-.06-.12-.13-.27-.13-.2,0-.41,.16-.41,.47,0,.25,.17,.44,.38,.44,.11,0,.21-.05,.27-.13v.06c0,.19-.09,.3-.27,.3-.09,0-.18-.03-.25-.07h-.01l-.05,.14h0c.07,.05,.18,.08,.3,.08,.08,0,.22-.01,.33-.11,.09-.08,.13-.21,.13-.41v-.51c0-.11,0-.18,0-.24h-.16v.1Zm-.25,.64c-.18,0-.25-.16-.25-.3,0-.19,.1-.32,.25-.32,.1,0,.18,.06,.21,.16,0,.02,0,.04,0,.07v.16s0,.06-.01,.08c-.03,.09-.11,.15-.21,.15Z"/><path class="cls-3" d="M17.11,7.81l-.04-.04c.08-.1,.14-.24,.17-.45h-.17c-.02,.14-.06,.25-.11,.34-.07-.08-.18-.21-.28-.32,.18-.09,.27-.2,.27-.33,0-.16-.12-.27-.28-.27-.21,0-.32,.16-.32,.31,0,.08,.03,.17,.1,.26-.16,.09-.24,.21-.24,.36,0,.18,.13,.35,.39,.35,.14,0,.25-.04,.36-.13,.02,.02,.04,.04,.06,.06,.02,.02,.03,.03,.05,.05h.22l-.02-.02c-.06-.06-.11-.12-.16-.17Zm-.58-.4c.12,.14,.24,.28,.32,.36h.01c-.06,.08-.15,.11-.23,.11-.14,0-.24-.1-.24-.23,0-.09,.05-.17,.14-.23Zm.07-.17c-.05-.07-.08-.13-.08-.21,0-.08,.04-.17,.14-.17,.09,0,.13,.07,.13,.15,0,.1-.07,.16-.19,.23Z"/><path class="cls-3" d="M19.07,6.76h-.22l-.22,.6c-.05,.15-.09,.27-.12,.38-.03-.12-.07-.24-.11-.38l-.21-.59h-.22l-.09,1.22h.17l.03-.52c0-.16,.02-.33,.02-.47,.03,.12,.07,.25,.12,.41l.2,.59h.14l.22-.6c.05-.15,.1-.29,.14-.41,0,.14,.01,.32,.02,.47l.03,.54h.18l-.08-1.22h0Z"/><path class="cls-3" d="M20.07,7.78v-.33c0-.17-.06-.37-.34-.37-.11,0-.22,.03-.3,.08h0l.04,.13h.01c.06-.05,.14-.07,.22-.07h0c.15,0,.18,.1,.18,.19h0c-.34,0-.53,.13-.53,.34,0,.13,.09,.26,.28,.26,.11,0,.2-.04,.26-.12v.1h.18c0-.07-.01-.14-.01-.22Zm-.18-.23v.14s0,.03,0,.05c-.02,.06-.09,.14-.2,.14-.07,0-.14-.04-.14-.14,0-.12,.11-.19,.33-.19,0,0,0,0,.01,0Z"/><path class="cls-3" d="M20.82,7.08c-.14,0-.23,.07-.28,.14v-.12h-.17c0,.08,0,.15,0,.25v.65h.18v-.54s0-.05,.01-.07c.03-.08,.1-.16,.2-.16,.16,0,.19,.13,.19,.25v.52h.18v-.53c0-.37-.27-.38-.32-.38Z"/><path class="cls-3" d="M22.2,7.75v-.65h-.18v.55s0,.06-.01,.08c-.03,.06-.09,.14-.2,.14-.12,0-.18-.09-.18-.27v-.49h-.18v.52c0,.36,.22,.39,.31,.39,.16,0,.25-.09,.28-.14v.12h.17c0-.07,0-.15,0-.25Z"/><path class="cls-3" d="M22.85,6.67c-.09,0-.17,.03-.22,.08-.07,.07-.1,.18-.1,.31v.03h-.12v.14h.12v.75h.18v-.75h.21v-.14h-.21v-.04c0-.17,.05-.24,.16-.24,.05,0,.08,.01,.1,.02h.01l.03-.14h0s-.07-.03-.14-.03Z"/><path class="cls-3" d="M23.73,7.78v-.33c0-.17-.06-.37-.34-.37-.11,0-.22,.03-.3,.08h0l.04,.13h.01c.06-.05,.14-.07,.22-.07h0c.15,0,.18,.1,.18,.19h0c-.34,0-.53,.13-.53,.34,0,.13,.09,.26,.28,.26,.11,0,.2-.04,.26-.12v.1h.18c0-.07-.01-.14-.01-.22Zm-.18-.23v.14s0,.03,0,.05c-.02,.06-.09,.14-.2,.14-.07,0-.14-.04-.14-.14,0-.12,.11-.19,.33-.19,0,0,0,0,.01,0Z"/><path class="cls-3" d="M24.45,7.23c.07,0,.13,.01,.18,.04h.01l.04-.14h0s-.13-.05-.23-.05c-.28,0-.48,.2-.48,.48s.18,.46,.45,.46c.11,0,.2-.03,.26-.05h0l-.03-.15h-.01s-.1,.05-.19,.05c-.18,0-.29-.13-.29-.32,0-.16,.09-.32,.3-.32Z"/><path class="cls-3" d="M25.15,6.89l-.18,.05v.16h-.14v.14h.14v.47c0,.11,.02,.19,.06,.24,.04,.05,.11,.07,.18,.07s.12-.01,.14-.02h0v-.15h-.02s-.05,.01-.09,.01c-.08,0-.11-.05-.11-.16v-.46h.23v-.14h-.23v-.21Z"/><path class="cls-3" d="M26.35,7.75v-.65h-.18v.55s0,.06-.01,.08c-.03,.06-.09,.14-.2,.14-.12,0-.18-.09-.18-.27v-.49h-.18v.52c0,.36,.22,.39,.31,.39,.16,0,.25-.09,.28-.14v.12h.17c0-.07,0-.15,0-.25Z"/><path class="cls-3" d="M27.06,7.08c-.1,0-.19,.06-.24,.16v-.14h-.17c0,.09,0,.17,0,.28v.61h.18v-.48s0-.05,0-.07c.02-.12,.1-.19,.2-.19,.02,0,.04,0,.05,0h.01v-.17h-.01s-.03,0-.04,0Z"/><rect class="cls-3" x="27.32" y="7.1" width=".18" height=".9"/><path class="cls-3" d="M27.42,6.75c-.06,0-.11,.05-.11,.11s.05,.11,.11,.11c.07,0,.11-.04,.11-.11s-.05-.11-.11-.11Z"/><path class="cls-3" d="M28.26,7.08c-.14,0-.23,.07-.28,.14v-.12h-.17c0,.08,0,.15,0,.25v.65h.18v-.54s0-.05,.01-.07c.03-.08,.1-.16,.2-.16,.16,0,.19,.13,.19,.25v.52h.18v-.53c0-.37-.27-.38-.32-.38Z"/><path class="cls-3" d="M29.5,7.1v.11c-.04-.06-.12-.13-.27-.13-.2,0-.41,.16-.41,.47,0,.25,.17,.44,.38,.44,.11,0,.21-.05,.27-.13v.06c0,.19-.09,.3-.27,.3-.09,0-.18-.03-.25-.07h-.01l-.05,.14h0c.07,.05,.18,.08,.3,.08,.08,0,.22-.01,.33-.11,.09-.08,.13-.21,.13-.41v-.51c0-.11,0-.18,0-.24h-.16Zm-.25,.74c-.18,0-.25-.16-.25-.3,0-.19,.1-.32,.25-.32,.1,0,.18,.06,.21,.16,0,.02,0,.04,0,.07v.16s0,.06-.01,.08c-.03,.09-.11,.15-.21,.15Z"/></g><path class="cls-3" d="M8,2.59l-.1-.03c-.55-.19-1.22-.43-1.22-1.07,0-.53,.4-1.09,1-1.09s.83,.23,1.07,.66l.02,.04,.33-.22-.02-.04c-.19-.33-.54-.78-1.42-.78-.99,0-1.71,.71-1.71,1.68s.69,1.25,1.35,1.51c.64,.26,1.24,.5,1.24,1.33,0,.7-.45,1.14-1.16,1.14-.25,0-.51-.1-.71-.28-.09-.08-.18-.18-.25-.29-.03-.05-.06-.11-.09-.17v-.03s-.05-.13-.07-.2v-.03h-.44v.05c.03,.15,.1,.45,.25,.66,.11,.15,.27,.3,.46,.41,.27,.16,.59,.24,.96,.24,1.01,0,1.8-.77,1.8-1.76,0-.81-.49-1.47-1.3-1.76Z"/><polygon class="cls-3" points="15.18 6.02 15.18 5.64 13.06 5.64 13.06 3.2 14.93 3.2 14.93 2.82 13.06 2.82 13.06 .49 15.07 .49 15.07 .11 12.22 .11 12.22 6.02 15.18 6.02"/><path class="cls-3" d="M29.7,6.03L27.05,.01h-.06l-2.68,6.01h.48l.8-1.81h2.55l.79,1.81h.76Zm-3.96-2.15l1.14-2.61,1.11,2.61h-2.24Z"/><path class="cls-3" d="M16.69,6.02V.43h.78c.35,0,1.51,.1,1.51,1.36,0,.75-.59,1.13-1.76,1.13h-.51l2.16,3.1h.87l-1.94-2.79h.06c1.17,0,1.87-.54,1.87-1.45,0-1.05-.82-1.67-2.2-1.67h-1.66V6.02h.84Z"/><rect class="cls-3" x="10.21" y=".11" width=".84" height="5.91"/><path class="cls-3" d="M21.23,6.02V.43h.78c.35,0,1.51,.1,1.51,1.36,0,.75-.59,1.13-1.76,1.13h-.51l2.16,3.1h.87l-1.94-2.79h.06c1.17,0,1.87-.54,1.87-1.45,0-1.05-.82-1.67-2.2-1.67h-1.66V6.02h.84Z"/></g></svg>